<svg aria-hidden="true" style="position: absolute; width: 0; height: 0; overflow: hidden;" version="1.1" xmlns="http://www.w3.org/2000/svg" xmlns:xlink="http://www.w3.org/1999/xlink">
<defs>
<symbol id="icon-burger" viewBox="0 0 18 16">
<path fill="" d="M0 0H18V2H0V0ZM0 7H18V9H0V7ZM0 14H18V16H0V14Z"/>
</symbol>
<symbol id="icon-close" viewBox="0 0 16 16">
<path fill="" d="M8 6.2225L14.2225 0L16 1.7775L9.7775 8L16 14.2225L14.2225 16L8 9.7775L1.7775 16L0 14.2225L6.2225 8L0 1.7775L1.7775 0L8 6.2225Z" />
</symbol>
<symbol id="icon-telegram" viewBox="0 0 256 256">
<g transform="scale(5.12,5.12)">
<path fill="" stroke="" d="M44.37695,5.98633c-0.48705,0.02137 -0.96114,0.15692 -1.38867,0.32813c-0.42317,0.17006 -2.8594,1.20989 -6.45703,2.74805c-3.59763,1.53816 -8.27429,3.54117 -12.91016,5.52734c-9.27174,3.97235 -18.38281,7.88086 -18.38281,7.88086l0.06641,-0.02539c0,0 -0.5499,0.18381 -1.10742,0.57227c-0.27876,0.19423 -0.57866,0.44498 -0.82422,0.81055c-0.24556,0.36557 -0.42507,0.88366 -0.35742,1.43164c0.23762,1.92475 2.23242,2.4707 2.23242,2.4707l0.00781,0.00391l8.90234,3.04688c0.22697,0.75718 2.70012,9.01167 3.24414,10.75977c0.30045,0.96647 0.58167,1.52398 0.875,1.9043c0.14679,0.19032 0.30062,0.3376 0.4707,0.44531c0.06758,0.04279 0.13865,0.0749 0.20898,0.10352c0.0015,0.00066 0.00241,-0.00066 0.00391,0c0.00864,0.00381 0.01677,0.00415 0.02539,0.00781l-0.02344,-0.00586c0.01634,0.0066 0.03247,0.01771 0.04883,0.02344c0.03174,0.01112 0.05119,0.01074 0.0918,0.01953c1.01954,0.35598 1.86328,-0.30469 1.86328,-0.30469l0.03516,-0.02734l5.46875,-5.07227l8.875,6.91992l0.11133,0.05078c1.55345,0.68975 2.95832,0.30493 3.73633,-0.32812c0.77801,-0.63306 1.08398,-1.44922 1.08398,-1.44922l0.0332,-0.08594l6.52148,-33.99023c0.16687,-0.76044 0.19058,-1.41775 0.0332,-2.01172c-0.15738,-0.59397 -0.53974,-1.1103 -1.01953,-1.39648c-0.47979,-0.28619 -0.9817,-0.37879 -1.46875,-0.35742zM44.42969,8.01953c0.1978,-0.00916 0.34441,0.01345 0.39062,0.04102c0.04621,0.02756 0.06696,0.02394 0.11133,0.19141c0.04437,0.16747 0.0684,0.52021 -0.05273,1.07227l-0.00391,0.01172l-6.48437,33.79297c-0.01535,0.03402 -0.15047,0.34662 -0.45898,0.59766c-0.31473,0.25609 -0.66477,0.45599 -1.59375,0.06641l-9.70508,-7.56836l-0.27344,-0.21484l-0.00586,0.00586l-2.90234,-2.17773l16.31055,-19.18945c0.25603,-0.30045 0.31139,-0.72339 0.1413,-1.0796c-0.17009,-0.35622 -0.5338,-0.57906 -0.92841,-0.56883c-0.18875,0.0049 -0.37226,0.06314 -0.5293,0.16797l-23.60156,15.73438l-8.91602,-3.05273c0,0 -0.88536,-0.49268 -0.92773,-0.83594c-0.00235,-0.01902 -0.0128,-0.0018 0.0332,-0.07031c0.04601,-0.06849 0.16165,-0.18413 0.30664,-0.28516c0.28998,-0.20204 0.62109,-0.32422 0.62109,-0.32422l0.0332,-0.01172l0.0332,-0.01367c0,0 9.11155,-3.90871 18.38281,-7.88086c4.63563,-1.98607 9.31146,-3.98761 12.9082,-5.52539c3.59582,-1.53738 6.19406,-2.64398 6.41406,-2.73242c0.25046,-0.1003 0.49946,-0.14123 0.69727,-0.15039zM33.61328,18.79297l-12.36914,14.55273l-0.00586,0.00586c-0.01931,0.02325 -0.03756,0.04736 -0.05469,0.07227c-0.01962,0.02706 -0.03787,0.05509 -0.05469,0.08398c-0.06949,0.11795 -0.11403,0.24891 -0.13086,0.38477c-0.00001,0.0026 -0.00001,0.00521 0,0.00781l-1.61133,7.24609c-0.02679,-0.07829 -0.04555,-0.10693 -0.07422,-0.19922v-0.00195c-0.51179,-1.64446 -2.84514,-9.42921 -3.16797,-10.50586zM22.64063,35.73047l2.22266,1.66797l-3.26562,3.02734z"></path>
</g>
</symbol>
<symbol id="icon-instagram" viewBox="0 0 50 50">
<path fill="" stroke="" d="M 16 3 C 8.8324839 3 3 8.8324839 3 16 L 3 34 C 3 41.167516 8.8324839 47 16 47 L 34 47 C 41.167516 47 47 41.167516 47 34 L 47 16 C 47 8.8324839 41.167516 3 34 3 L 16 3 z M 16 5 L 34 5 C 40.086484 5 45 9.9135161 45 16 L 45 34 C 45 40.086484 40.086484 45 34 45 L 16 45 C 9.9135161 45 5 40.086484 5 34 L 5 16 C 5 9.9135161 9.9135161 5 16 5 z M 37 11 A 2 2 0 0 0 35 13 A 2 2 0 0 0 37 15 A 2 2 0 0 0 39 13 A 2 2 0 0 0 37 11 z M 25 14 C 18.936712 14 14 18.936712 14 25 C 14 31.063288 18.936712 36 25 36 C 31.063288 36 36 31.063288 36 25 C 36 18.936712 31.063288 14 25 14 z M 25 16 C 29.982407 16 34 20.017593 34 25 C 34 29.982407 29.982407 34 25 34 C 20.017593 34 16 29.982407 16 25 C 16 20.017593 20.017593 16 25 16 z"/>
</symbol>
<symbol id="icon-youtube" viewBox="0 0 50 50">
<path fill="" d="M 13 5 L 16 14 L 16 20 L 18 20 L 18 14 L 21 5 L 19 5 L 17 11 L 15 5 Z M 24 9 C 22.933594 9 22.410156 9.167969 21.757813 9.703125 C 21.132813 10.230469 20.960938 10.636719 21 12 L 21 17 C 21 17.996094 21.164063 18.652344 21.765625 19.234375 C 22.390625 19.816406 22.980469 20 24 20 C 25.066406 20 25.648438 19.816406 26.25 19.234375 C 26.875 18.675781 27 17.996094 27 17 L 27 12 C 27 11.117188 26.84375 10.28125 26.238281 9.722656 C 25.613281 9.148438 24.96875 9 24 9 Z M 29 9 L 29 18 C 29 18.972656 29.980469 20 31 20 C 32.019531 20 32.558594 19.488281 33 19 L 33 20 L 35 20 L 35 9 L 33 9 L 33 17 C 32.988281 17.683594 32.183594 18 32 18 C 31.792969 18 31 17.957031 31 17 L 31 9 Z M 24 11 C 24.300781 11 25 10.996094 25 12 L 25 17 C 25 17.96875 24.324219 18 24 18 C 23.699219 18 23 17.988281 23 17 L 23 12 C 23 11.183594 23.433594 11 24 11 Z M 10 22 C 6.40625 22 4 24.382813 4 28 L 4 37.5 C 4 41.117188 6.40625 44 10 44 L 40 44 C 43.59375 44 46 41.617188 46 38 L 46 28 C 46 24.382813 43.59375 22 40 22 Z M 12 26 L 18 26 L 18 28 L 16 28 L 16 40 L 14 40 L 14 28 L 12 28 Z M 26 26 L 28 26 L 28 30 C 28.230469 29.640625 28.574219 29.355469 28.902344 29.195313 C 29.222656 29.03125 29.546875 28.9375 29.875 28.9375 C 30.523438 28.9375 31.03125 29.171875 31.378906 29.609375 C 31.726563 30.050781 32 30.636719 32 31.5 L 32 37.5 C 32 38.242188 31.75 38.703125 31.421875 39.097656 C 31.101563 39.492188 30.621094 39.992188 30 40 C 28.949219 40.011719 28.386719 39.449219 28 39 L 28 40 L 26 40 Z M 18 29 L 20 29 L 20 37 C 20 37.230469 20.269531 38.007813 21 38 C 21.8125 37.992188 21.820313 37.234375 22 37 L 22 29 L 24 29 L 24 40 L 22 40 L 22 39 C 21.628906 39.4375 21.4375 39.574219 21.019531 39.78125 C 20.605469 40.015625 20.183594 40 19.792969 40 C 19.308594 40 18.757813 39.5625 18.5 39.234375 C 18.269531 38.933594 18 38.625 18 38 Z M 36.199219 29 C 37.148438 29 37.816406 29.203125 38.320313 29.734375 C 38.835938 30.265625 39 30.886719 39 31.886719 L 39 35 L 35 35 L 35 36.546875 C 35 37.105469 35.074219 37.460938 35.21875 37.671875 C 35.355469 37.902344 35.632813 38.003906 36 38 C 36.40625 37.996094 36.664063 37.914063 36.800781 37.730469 C 36.941406 37.566406 37 37.101563 37 36.5 L 37 36 L 39 36 L 39 36.59375 C 39 37.683594 38.914063 38.496094 38.375 39.027344 C 37.867188 39.585938 37.074219 39.84375 36.035156 39.84375 C 35.085938 39.84375 34.34375 39.5625 33.8125 38.984375 C 33.28125 38.40625 33.003906 37.613281 33.003906 36.59375 L 33.003906 31.886719 C 33.003906 30.980469 33.320313 30.308594 33.902344 29.710938 C 34.371094 29.230469 35.25 29 36.199219 29 Z M 29 30.5 C 28.449219 30.5 28.007813 30.996094 28 31.5 L 28 37.5 C 28.007813 37.789063 28.449219 38 29 38 C 29.550781 38 30 37.574219 30 37.023438 L 30 32 C 30 31 29.550781 30.5 29 30.5 Z M 36 31 C 35.449219 31 35.007813 31.464844 35 32 L 35 33 L 37 33 L 37 32 C 37 31.386719 36.550781 31 36 31 Z"/>
</symbol>
</defs>
</svg>